<?xml version="1.0" encoding="UTF-8"?>
<svg version="1.1" xmlns="http://www.w3.org/2000/svg" width="742" height="741">
<path d="M0 0 C1.25403625 -0.00807175 2.50807251 -0.01614349 3.80010986 -0.02445984 C6.45955035 -0.03826412 9.1188687 -0.04928528 11.77832031 -0.05688477 C14.44281797 -0.06561373 17.10603357 -0.0885426 19.77050781 -0.1184082 C45.00085265 -0.40046115 69.56508652 2.17136437 94.078125 8.23828125 C95.01124512 8.46854004 95.94436523 8.69879883 96.90576172 8.93603516 C133.13619036 18.06852284 168.92526609 34.00473054 199.078125 56.23828125 C200.01084229 56.91842285 200.01084229 56.91842285 200.96240234 57.61230469 C212.99904253 66.39984449 224.36408713 75.78077147 235.390625 85.80078125 C236.24563599 86.57035156 236.24563599 86.57035156 237.11791992 87.35546875 C238.47774665 88.60790187 239.78366512 89.91839827 241.078125 91.23828125 C241.078125 91.89828125 241.078125 92.55828125 241.078125 93.23828125 C242.0371875 93.64046875 242.0371875 93.64046875 243.015625 94.05078125 C245.078125 95.23828125 245.078125 95.23828125 246.078125 98.23828125 C246.738125 98.23828125 247.398125 98.23828125 248.078125 98.23828125 C249.453125 99.56640625 249.453125 99.56640625 251.078125 101.48828125 C251.70074219 102.22175781 252.32335937 102.95523438 252.96484375 103.7109375 C253.66222656 104.54496094 254.35960937 105.37898438 255.078125 106.23828125 C255.84769531 107.14449219 256.61726562 108.05070312 257.41015625 108.984375 C268.15909322 121.73075223 278.91697396 134.92350723 287.10009766 149.49707031 C288.02791998 151.14889977 288.98200764 152.78589543 289.9375 154.421875 C299.04614064 170.09852305 307.09570897 186.37420891 313.3840332 203.39501953 C314.58637572 206.58801495 315.95749838 209.71143527 317.30859375 212.84375 C318.14206597 215.43724478 318.21755273 217.53146015 318.078125 220.23828125 C318.738125 220.23828125 319.398125 220.23828125 320.078125 220.23828125 C321.23228681 224.73886752 322.35910652 229.2454418 323.46630859 233.7578125 C323.87062971 235.39703936 324.2797269 237.03509638 324.69384766 238.671875 C327.6044898 250.23226072 329.76405043 261.80146209 331.390625 273.61328125 C331.56207031 274.82387207 331.73351562 276.03446289 331.91015625 277.28173828 C333.10578524 286.47687251 333.078125 294.78705765 333.078125 304.23828125 C350.568125 304.23828125 368.058125 304.23828125 386.078125 304.23828125 C386.078125 307.86828125 386.078125 311.49828125 386.078125 315.23828125 C346.69920854 316.12959613 307.34995487 316.36115443 267.96323092 316.27494615 C259.65847707 316.25701235 251.35371673 316.24570066 243.0489516 316.23444954 C227.73690551 316.21353223 212.42487175 316.18768372 197.11283875 316.15881538 C181.99794349 316.1303356 166.88304701 316.10417623 151.7681427 316.08097649 C150.34736599 316.07879386 150.34736599 316.07879386 148.89788673 316.07656713 C144.08571765 316.06918625 139.27354851 316.06184548 134.46137935 316.05452012 C100.56181023 316.00284458 66.66225117 315.94617662 32.76269531 315.88647461 C-0.12727475 315.8285623 -33.01724742 315.77297242 -65.90722656 315.72045898 C-66.92478345 315.7188334 -67.94234034 315.71720782 -68.99073229 315.71553298 C-79.21140586 315.69920763 -89.43207951 315.68292876 -99.65275321 315.66668392 C-120.46507647 315.63360355 -141.27739922 315.60021333 -162.08972168 315.56663513 C-163.04619884 315.56509235 -164.00267601 315.56354957 -164.98813733 315.56196004 C-228.63272529 315.45926712 -292.27730114 315.34933358 -355.921875 315.23828125 C-355.921875 311.60828125 -355.921875 307.97828125 -355.921875 304.23828125 C-336.781875 304.23828125 -317.641875 304.23828125 -297.921875 304.23828125 C-297.921875 299.94828125 -297.921875 295.65828125 -297.921875 291.23828125 C-297.59572315 286.96383586 -297.22152208 282.74257222 -296.734375 278.48828125 C-296.60417969 277.33666504 -296.47398437 276.18504883 -296.33984375 274.99853516 C-294.6128054 260.60720312 -292.38495173 245.95541074 -287.58691406 232.23535156 C-286.67826026 229.50672158 -286.10974652 226.74379388 -285.546875 223.92578125 C-284.30488645 218.31722243 -282.42493732 213.322598 -280.109375 208.078125 C-279.00603116 205.43953627 -278.1781879 202.8678072 -277.421875 200.11328125 C-276.13320023 195.50980722 -274.16552752 191.47423521 -271.91015625 187.26953125 C-270.7760405 185.31502742 -270.7760405 185.31502742 -270.921875 183.23828125 C-270.261875 183.23828125 -269.601875 183.23828125 -268.921875 183.23828125 C-268.83035156 182.73039063 -268.73882812 182.2225 -268.64453125 181.69921875 C-267.62348789 178.22215219 -265.99142192 175.08428473 -264.359375 171.86328125 C-264.0072998 171.16299805 -263.65522461 170.46271484 -263.29248047 169.74121094 C-260.2506145 163.75460288 -256.97055485 157.9272547 -253.5859375 152.12890625 C-252.27939672 149.85932838 -251.05545779 147.59704947 -249.921875 145.23828125 C-249.261875 145.23828125 -248.601875 145.23828125 -247.921875 145.23828125 C-247.65093018 144.50544922 -247.37998535 143.77261719 -247.10083008 143.01757812 C-245.200254 138.53711466 -242.36437845 134.73166028 -239.609375 130.73828125 C-239.04025391 129.89652344 -238.47113281 129.05476562 -237.88476562 128.1875 C-234.8591193 123.77582281 -231.81361959 119.93736522 -227.921875 116.23828125 C-226.37704368 114.42512341 -224.8559688 112.59145478 -223.359375 110.73828125 C-222.61558594 109.82046875 -221.87179688 108.90265625 -221.10546875 107.95703125 C-219.63332563 106.12409456 -218.18831424 104.26907575 -216.76953125 102.39453125 C-216.15980469 101.68296875 -215.55007812 100.97140625 -214.921875 100.23828125 C-214.261875 100.23828125 -213.601875 100.23828125 -212.921875 100.23828125 C-212.591875 99.24828125 -212.261875 98.25828125 -211.921875 97.23828125 C-210.31237091 95.51634857 -208.6321068 93.86021304 -206.921875 92.23828125 C-206.39207031 91.73135742 -205.86226562 91.22443359 -205.31640625 90.70214844 C-194.27826483 80.17549984 -182.99632937 70.1341998 -170.734375 61.05078125 C-170.08597656 60.56843018 -169.43757812 60.0860791 -168.76953125 59.58911133 C-164.16820801 56.23828125 -164.16820801 56.23828125 -161.921875 56.23828125 C-161.921875 55.57828125 -161.921875 54.91828125 -161.921875 54.23828125 C-160.43505859 53.10009766 -160.43505859 53.10009766 -158.3203125 51.83984375 C-157.53124512 51.36643555 -156.74217773 50.89302734 -155.92919922 50.40527344 C-155.06053223 49.89641602 -154.19186523 49.38755859 -153.296875 48.86328125 C-152.4011377 48.33379883 -151.50540039 47.80431641 -150.58251953 47.25878906 C-134.7834261 37.98582488 -118.87835748 29.21158463 -101.921875 22.23828125 C-100.76679443 21.75198242 -100.76679443 21.75198242 -99.58837891 21.25585938 C-74.36665994 10.71298561 -47.89235178 5.01001459 -20.921875 1.23828125 C-19.73867676 1.05942383 -18.55547852 0.88056641 -17.33642578 0.69628906 C-11.57756792 -0.00831519 -5.79428322 0.03617174 0 0 Z " fill="#000000" transform="translate(355.921875,63.76171875)"/>
<path d="M0 0 C1.18085132 0.00023397 1.18085132 0.00023397 2.38555821 0.00047267 C3.74565853 -0.00289827 3.74565853 -0.00289827 5.13323563 -0.00633731 C6.64780807 -0.00239679 6.64780807 -0.00239679 8.19297793 0.00162334 C9.25949557 0.00046949 10.32601321 -0.00068435 11.42484957 -0.00187316 C15.04685618 -0.00454839 18.66881954 -0.00001026 22.29082396 0.00441665 C24.89443615 0.00398113 27.4980483 0.00310659 30.10166022 0.00182748 C35.78726392 -0.00025208 41.47285719 0.0014074 47.15845969 0.00546569 C55.61283389 0.01148358 64.06720146 0.01180309 72.52157742 0.0109237 C86.74096248 0.00960761 100.96034291 0.01295951 115.17972663 0.01894111 C129.26551559 0.02485136 143.35130262 0.02870568 157.43709281 0.02979392 C158.31180889 0.02986266 159.18652496 0.0299314 160.08774759 0.03000222 C164.52970697 0.03034054 168.97166635 0.03064193 173.41362574 0.0309291 C204.90344976 0.03303138 236.39327126 0.03977396 267.88309386 0.04923171 C298.48140101 0.05841112 329.07970748 0.06549719 359.67801574 0.06973952 C361.09194237 0.06993681 361.09194237 0.06993681 362.53443317 0.07013809 C372.0002989 0.07145657 381.46616463 0.07273239 390.93203037 0.07397695 C410.21633164 0.07651339 429.50063286 0.07933464 448.78493407 0.08232803 C449.67166029 0.08246532 450.55838651 0.08260261 451.47198322 0.08274406 C510.71977962 0.09194992 569.96757461 0.10779573 629.21536925 0.12467116 C630.24696551 3.21945995 630.19019787 4.65098509 629.77786925 7.81217116 C629.62511534 9.02453445 629.62511534 9.02453445 629.4692755 10.26138991 C629.38548644 10.87627273 629.30169738 11.49115554 629.21536925 12.12467116 C569.16722846 12.14180172 509.11908739 12.15770242 449.07094481 12.1670143 C448.18294822 12.16715236 447.29495162 12.16729042 446.38004604 12.16743266 C427.08389882 12.17042521 407.78775158 12.17319544 388.4916043 12.17573649 C379.02949014 12.17698389 369.56737598 12.17828043 360.10526183 12.17960281 C359.16364169 12.17973356 358.22202155 12.17986432 357.25186747 12.17999905 C326.70271632 12.18426434 296.15356701 12.19177859 265.60441697 12.20096839 C234.22479177 12.21039092 202.84516759 12.21655427 171.46554099 12.21858615 C167.03866426 12.21887433 162.61178753 12.21919997 158.1849108 12.21954841 C156.87793473 12.21964954 156.87793473 12.21964954 155.5445551 12.21975272 C141.48939351 12.22093683 127.43423506 12.2255813 113.37907476 12.2315032 C99.26668324 12.23737597 85.15429486 12.23964279 71.04190216 12.23817254 C62.64598254 12.23740896 54.25007435 12.23946632 45.85415678 12.24546871 C39.60242832 12.2496349 33.35071104 12.24864628 27.09898217 12.24557006 C24.55658518 12.24514411 22.01418726 12.24644203 19.47179214 12.24955435 C16.04029532 12.25351387 12.60885631 12.25143735 9.17736056 12.24771899 C8.16924995 12.25034601 7.16113933 12.25297302 6.12247991 12.25567964 C5.21717978 12.25343235 4.31187965 12.25118505 3.37914618 12.24886966 C2.59315982 12.24902564 1.80717345 12.24918162 0.99736932 12.24934233 C-0.78463075 12.12467116 -0.78463075 12.12467116 -1.78463075 11.12467116 C-2.04392787 9.46516957 -2.2434409 7.79606624 -2.40963075 6.12467116 C-2.50502137 5.21717116 -2.600412 4.30967116 -2.69869325 3.37467116 C-2.72705262 2.63217116 -2.755412 1.88967116 -2.78463075 1.12467116 C-1.78463075 0.12467116 -1.78463075 0.12467116 0 0 Z " fill="#000000" transform="translate(59.78463074937463,382.87532883509994)"/>
<path d="M0 0 C0.89879779 -0.00250352 1.79759557 -0.00500704 2.72362965 -0.00758642 C4.22488319 -0.00407467 4.22488319 -0.00407467 5.75646508 -0.00049198 C7.34223055 -0.00267214 7.34223055 -0.00267214 8.96003169 -0.00489634 C12.55029216 -0.00858482 16.14051093 -0.00505683 19.73077118 -0.00163448 C22.31162141 -0.00278518 24.89247148 -0.00437235 27.4733212 -0.00636172 C33.10927111 -0.00998621 38.74521145 -0.00985603 44.38116181 -0.00731456 C52.76186452 -0.00354558 61.1425591 -0.00545878 69.52326175 -0.00852287 C84.48825023 -0.0138002 99.45323444 -0.01332759 114.41822332 -0.01044396 C127.51525638 -0.00793254 140.61228789 -0.00726976 153.70932114 -0.0084666 C154.57667011 -0.00854299 155.44401908 -0.00861937 156.33765135 -0.00869807 C159.85815534 -0.00900939 163.37865932 -0.00932779 166.8991633 -0.00965784 C199.95465916 -0.01271991 233.01015231 -0.00993861 266.06564775 -0.00456094 C295.45639388 0.00018417 324.84713568 -0.00023891 354.23788178 -0.00502193 C387.2282879 -0.01037276 420.21869161 -0.01250194 453.2090981 -0.00940967 C456.7239633 -0.00908893 460.2388285 -0.00877609 463.7536937 -0.0084666 C465.05194885 -0.00834799 465.05194885 -0.00834799 466.37643137 -0.00822697 C479.4663051 -0.00708785 492.55617709 -0.00842287 505.64605057 -0.01094615 C520.52624275 -0.01380018 535.40642999 -0.01310182 550.28662156 -0.00766541 C558.62213672 -0.00472081 566.9576412 -0.00454939 575.29315609 -0.00831159 C581.50343247 -0.01080622 587.71369614 -0.00811665 593.92397095 -0.00333701 C596.4468578 -0.00221316 598.96974607 -0.00280331 601.49263202 -0.0052128 C604.90260862 -0.00822151 608.31252561 -0.00516726 611.72249901 -0.00049198 C612.71865237 -0.00283314 613.71480573 -0.00517431 614.74114555 -0.00758642 C615.64495037 -0.0050829 616.5487552 -0.00257938 617.47994804 0 C618.26040733 0.00006776 619.04086661 0.00013552 619.84497618 0.00020533 C621.86532319 0.12534916 621.86532319 0.12534916 624.86532319 1.12534916 C624.72489441 2.77165244 624.57782989 4.41739096 624.42782319 6.06284916 C624.34661225 6.9793726 624.26540131 7.89589604 624.18172944 8.84019291 C623.86532319 11.12534916 623.86532319 11.12534916 622.86532319 12.12534916 C621.4844483 12.22224314 620.09864045 12.24982325 618.71437031 12.24954766 C617.81193701 12.25179495 616.90950372 12.25404225 615.97972396 12.25635764 C614.97482204 12.25373063 613.96992011 12.25110361 612.93456662 12.24839699 C611.8731141 12.24955084 610.81166158 12.25070468 609.71804383 12.25189349 C606.11326736 12.2545687 602.50853435 12.2500306 598.90376008 12.24560368 C596.31252228 12.2460392 593.72128454 12.24691374 591.13004702 12.24819285 C585.47148044 12.2502724 579.81292435 12.24861294 574.15435898 12.24455464 C565.74018854 12.23853673 557.32602475 12.23821724 548.91185255 12.23909663 C534.76008422 12.24041272 520.60832055 12.23706082 506.45655358 12.23107922 C492.4377507 12.22516896 478.41894976 12.22131464 464.40014565 12.22022641 C463.52958861 12.22015767 462.65903157 12.22008893 461.76209402 12.22001811 C457.34125477 12.21967979 452.92041553 12.2193784 448.49957628 12.21909123 C417.15949515 12.21698895 385.81941656 12.21024638 354.47933686 12.20078862 C324.02653752 12.1916092 293.57373887 12.18452313 263.12093842 12.1802808 C262.18280283 12.18014928 261.24466725 12.18001775 260.27810331 12.17988224 C250.85724778 12.17856376 241.43639225 12.17728794 232.01553671 12.17604338 C212.82293315 12.17350694 193.63032964 12.17068569 174.43772614 12.1676923 C173.11396151 12.16748637 173.11396151 12.16748637 171.76345416 12.16727627 C112.79740944 12.15807041 53.83136614 12.14222461 -5.13467681 12.12534916 C-5.16154961 10.31292865 -5.18101397 8.50039683 -5.19717681 6.68784916 C-5.20877838 5.67851323 -5.22037994 4.66917729 -5.23233306 3.62925541 C-5.072413 -0.47109508 -3.67923662 0.00031948 0 0 Z " fill="#000000" transform="translate(64.13467681407928,401.8746508359909)"/>
<path d="M0 0 C201.63 0 403.26 0 611 0 C609 9 609 9 606 12 C604.09912229 12.37448616 604.09912229 12.37448616 601.90579277 12.37374616 C601.06705975 12.38074426 600.22832673 12.38774237 599.36417755 12.39495254 C598.44083781 12.38735734 597.51749806 12.37976215 596.56617832 12.3719368 C595.09095857 12.37757849 595.09095857 12.37757849 593.5859364 12.38333416 C590.25811917 12.39234688 586.93072249 12.37978679 583.60292053 12.36749268 C581.20570039 12.3695152 578.80848105 12.3728524 576.41126436 12.37739825 C571.18224574 12.3842665 565.95331668 12.38174426 560.72430801 12.37107468 C552.94785583 12.35525111 545.17147304 12.35654795 537.39500964 12.36136696 C524.30988859 12.36896718 511.22480967 12.36242455 498.13969612 12.34775543 C485.16640964 12.33322917 472.19314161 12.32446943 459.21984673 12.32357025 C458.41332892 12.32350916 457.60681111 12.32344806 456.77585337 12.32338512 C453.50189486 12.3231556 450.22793635 12.32296842 446.95397784 12.32283698 C417.08950491 12.32162454 387.22505775 12.30591218 357.3605957 12.28125 C329.1922994 12.25799359 301.02401872 12.24378867 272.85571289 12.24023438 C271.98924008 12.24012286 271.12276728 12.24001134 270.23003772 12.23989645 C266.73663466 12.23944758 263.24323159 12.2390056 259.74982853 12.23856402 C258.00874504 12.23834364 256.26766156 12.23812235 254.52657807 12.23790014 C252.78966098 12.23767878 251.05274389 12.23746001 249.31582681 12.23724384 C221.6020804 12.23372192 193.88833691 12.22225716 166.17459344 12.2094375 C158.06828708 12.20572481 149.96198092 12.20245845 141.85567403 12.20018864 C124.79988738 12.19536748 107.74411008 12.18822331 90.68832988 12.17204097 C83.63587699 12.16542068 76.58343156 12.16024765 69.53097534 12.15958023 C63.06404634 12.15896583 56.59713409 12.15332826 50.13021129 12.14426073 C47.80089041 12.14177213 45.47156705 12.14091123 43.14224506 12.14191952 C29.39517531 12.14671741 15.72284856 11.83552392 2 11 C1.34 7.37 0.68 3.74 0 0 Z " fill="#000000" transform="translate(68,459)"/>
<path d="M0 0 C1.16587718 0.00023397 1.16587718 0.00023397 2.35530743 0.00047267 C3.25057364 -0.00177462 4.14583985 -0.00402192 5.06823533 -0.00633731 C6.56355563 -0.00239679 6.56355563 -0.00239679 8.08908441 0.00162334 C9.14209506 0.00046949 10.19510571 -0.00068435 11.28002578 -0.00187316 C14.85608536 -0.00454834 18.43210111 -0.0000103 22.00815847 0.00441665 C24.57877226 0.00398113 27.14938601 0.00310658 29.71999952 0.00182748 C35.33350422 -0.00025206 40.94699836 0.00140738 46.56050184 0.00546569 C54.90766602 0.01148362 63.25482349 0.01180309 71.60198945 0.0109237 C85.64106321 0.00960761 99.68013229 0.0129595 113.71920469 0.01894111 C127.6263641 0.02485137 141.53352155 0.02870569 155.4406822 0.02979392 C156.73612016 0.02989703 156.73612016 0.02989703 158.05772858 0.03000222 C162.4433676 0.03034054 166.82900662 0.03064193 171.21464564 0.0309291 C202.30515528 0.03303138 233.39566236 0.03977394 264.48617056 0.04923171 C294.69645688 0.05841113 324.9067425 0.0654972 355.11702993 0.06973952 C356.51302789 0.06993681 356.51302789 0.06993681 357.93722783 0.07013809 C367.28306636 0.07145657 376.62890489 0.07273239 385.97474343 0.07397695 C405.01451747 0.07651339 424.05429147 0.07933464 443.09406545 0.08232803 C443.96954776 0.08246532 444.84503007 0.08260261 445.74704215 0.08274406 C504.24350073 0.09194991 562.73995788 0.10781646 621.2364147 0.12467116 C620.9064147 3.75467116 620.5764147 7.38467116 620.2364147 11.12467116 C614.41552661 12.12889854 608.77742831 12.26494082 602.87806776 12.25051231 C601.32587001 12.25269247 601.32587001 12.25269247 599.74231472 12.25491667 C596.26428962 12.25857491 592.7863084 12.25509103 589.30828359 12.25165481 C586.79380202 12.25280669 584.27932061 12.25439467 581.76483956 12.25638205 C576.29243584 12.25969173 570.82004561 12.25988434 565.34764173 12.25733489 C557.21012053 12.25355413 549.07260765 12.25548525 540.9350865 12.2585432 C526.40247973 12.26381098 511.86987736 12.26335177 497.33727018 12.26046429 C484.6208878 12.25795003 471.90450703 12.25729143 459.18812444 12.25848693 C457.92350686 12.25860151 457.92350686 12.25860151 456.63334145 12.2587184 C453.21114595 12.25902973 449.78895045 12.25934813 446.36675495 12.25967816 C414.25764996 12.26273786 382.14854777 12.25996249 350.03944321 12.25458127 C321.50028116 12.24983472 292.96112358 12.25026093 264.42196157 12.25504226 C232.36905186 12.26039429 200.31614462 12.26252175 168.26323452 12.25942999 C164.84784749 12.25910927 161.43246045 12.25879643 158.01707342 12.25848693 C157.17609739 12.25840785 156.33512137 12.25832878 155.46866122 12.2582473 C142.75758186 12.25710884 130.04650428 12.25844193 117.33542516 12.26096648 C102.88692365 12.26382178 88.43842723 12.26311934 73.98992635 12.25768574 C65.89919723 12.25474363 57.80847913 12.25456617 49.71775029 12.25833191 C43.68639126 12.26083008 37.6550466 12.25813193 31.62368844 12.25335734 C29.17631498 12.25223517 26.72894005 12.25281994 24.28156753 12.25523313 C20.96871673 12.25825053 17.6559269 12.25517852 14.34307935 12.25051231 C12.9002138 12.25402405 12.9002138 12.25402405 11.42819944 12.25760675 C7.23721086 12.24571612 3.32052946 12.20046174 -0.7635853 11.12467116 C-1.12468072 9.4803441 -1.47728606 7.83415036 -1.8260853 6.18717116 C-2.02331187 5.27064773 -2.22053843 4.35412429 -2.42374155 3.40982741 C-2.53588999 2.65572585 -2.64803843 1.90162429 -2.7635853 1.12467116 C-1.7635853 0.12467116 -1.7635853 0.12467116 0 0 Z " fill="#000000" transform="translate(63.763585302978754,427.87532883509994)"/>
<path d="M0 0 C55.64852833 -0.01711048 111.29705692 -0.03303211 166.94558716 -0.04234314 C167.76859777 -0.0424812 168.59160838 -0.04261925 169.43955871 -0.04276149 C187.32381083 -0.04575408 205.20806299 -0.04852431 223.09231519 -0.05106533 C231.86216196 -0.05231272 240.63200871 -0.05360926 249.40185547 -0.05493164 C250.27458208 -0.0550624 251.1473087 -0.05519316 252.04648157 -0.05532788 C280.35755979 -0.05959274 308.66863602 -0.06710666 336.97971303 -0.07629722 C366.0618261 -0.08572098 395.14393807 -0.09188339 424.22605265 -0.09391499 C428.32935294 -0.09420316 432.43265323 -0.0945288 436.53595352 -0.09487724 C437.34357856 -0.09494467 438.15120359 -0.09501209 438.98330211 -0.09508156 C452.00801122 -0.09626539 465.03271693 -0.10090916 478.05742465 -0.10683203 C491.13700224 -0.11270656 504.21657645 -0.11497118 517.29615532 -0.11350138 C525.07643059 -0.11273814 532.85669352 -0.1147922 540.63696657 -0.12079754 C546.43218261 -0.12496692 552.22738999 -0.12397335 558.02260698 -0.12089889 C560.37794362 -0.12047328 562.73328127 -0.12176833 565.08861588 -0.12488318 C568.27021832 -0.12884882 571.45175859 -0.12676229 574.63335991 -0.12304783 C575.56504362 -0.12567484 576.49672733 -0.12830186 577.45664388 -0.13100848 C583.7717084 -0.1141458 583.7717084 -0.1141458 586 1 C585.46599103 4.91606575 584.80330533 7.39338934 583 11 C391.27 11 199.54 11 2 11 C-1 4 -1 4 -0.6875 1.5625 C-0.460625 1.046875 -0.23375 0.53125 0 0 Z " fill="#000000" transform="translate(81,494)"/>
<path d="M0 0 C180.84 0 361.68 0 548 0 C546.91237072 4.3505171 545.98170917 6.65493021 543 10 C540.04465445 10.89495025 537.17324065 10.80736626 534.10401249 10.75784016 C533.19086168 10.7668604 532.27771087 10.77588064 531.33688882 10.78517422 C528.2540434 10.80821077 525.17295164 10.78821056 522.09010315 10.76863098 C519.86693682 10.77625501 517.64377816 10.78649356 515.42063469 10.79913253 C509.2937002 10.82622513 503.16731208 10.81563381 497.04036129 10.79900706 C491.11700844 10.7887068 485.1937845 10.80646631 479.27045658 10.82335677 C466.40366031 10.85886381 453.5370338 10.85978717 440.67020618 10.84592484 C429.40981079 10.83383233 418.14948014 10.83244136 406.88908195 10.84183311 C406.14284162 10.84243655 405.39660129 10.84303999 404.62774762 10.84366171 C401.59868444 10.84611141 398.5696213 10.848593 395.5405582 10.851134 C367.11069514 10.87471341 338.68094348 10.86244281 310.25108958 10.83478849 C284.98168492 10.81044894 259.71250183 10.82007708 234.44311523 10.85766602 C206.06755221 10.89977916 177.69211792 10.91902848 149.31652397 10.90264148 C146.29259394 10.9009632 143.26866389 10.8993503 140.24473381 10.89777184 C139.50013882 10.89736479 138.75554383 10.89695775 137.98838535 10.89653838 C126.73454497 10.89081742 115.48081175 10.90280897 104.22699165 10.92350197 C91.4325429 10.94695795 78.63836705 10.94574257 65.84393663 10.91158883 C59.31166868 10.89480234 52.77980368 10.89007375 46.24754143 10.91518784 C40.27331449 10.93784794 34.30004636 10.92847606 28.32588958 10.89301594 C26.15904939 10.88586152 23.99213188 10.89064655 21.82535142 10.90825496 C18.88967339 10.93036955 15.9573456 10.90978787 13.02182865 10.87809467 C11.74613305 10.90310569 11.74613305 10.90310569 10.44466582 10.92862198 C7.0606857 10.85397432 4.88970705 10.79072892 2.29939049 8.48857989 C0.90760346 6.67683623 -0.19052133 5.13821504 -1 3 C-0.67 2.01 -0.34 1.02 0 0 Z " fill="#000000" transform="translate(100,534)"/>
<path d="M0 0 C160.05 0 320.1 0 485 0 C485 0.99 485 1.98 485 3 C484.34 3 483.68 3 483 3 C483 3.66 483 4.32 483 5 C482.34 5 481.68 5 481 5 C480.731875 5.61875 480.46375 6.2375 480.1875 6.875 C479 9 479 9 476 11 C473.41559999 11.19547761 470.9390586 11.27342849 468.35430431 11.26006222 C467.16910262 11.26577072 467.16910262 11.26577072 465.95995745 11.27159455 C463.2900682 11.2819698 460.62038923 11.2779933 457.95048523 11.27415466 C456.02588832 11.27860385 454.10129325 11.28391684 452.17670089 11.29002339 C446.87051364 11.3042521 441.56438482 11.30586576 436.25818121 11.30542648 C430.54230695 11.3070704 424.82645708 11.32012891 419.1105957 11.33161926 C406.60457133 11.3545011 394.09856389 11.36239323 381.59252143 11.36744571 C373.78834577 11.3706989 365.98417507 11.37721906 358.18000221 11.3844471 C336.58558969 11.40401684 314.99118355 11.42050025 293.39676189 11.42332363 C292.36034232 11.42346472 292.36034232 11.42346472 291.30298498 11.42360866 C288.50278688 11.42398715 285.70258879 11.42435115 282.90239069 11.42471164 C280.79470903 11.42498336 278.68702737 11.42526004 276.5793457 11.42553711 C275.88288738 11.42562513 275.18642905 11.42571315 274.46886593 11.42580384 C252.58312676 11.42870963 230.69747589 11.45080731 208.81176758 11.48706055 C184.23480514 11.52777056 159.65790881 11.55146248 135.08091003 11.55178314 C122.06361926 11.55236862 109.04644213 11.56091887 96.02918053 11.58978081 C84.94646727 11.61423988 73.86390909 11.62161463 62.78117617 11.60653328 C57.12372911 11.59934207 51.46658859 11.60031693 45.80917549 11.62294388 C40.63316493 11.64344763 35.45769827 11.64101423 30.28169415 11.62006903 C28.40618075 11.61655761 26.53062878 11.6215535 24.65516599 11.63577347 C22.11051862 11.65382842 19.56780645 11.64122236 17.02321911 11.62082577 C16.29060941 11.63338914 15.55799972 11.64595251 14.80318972 11.6588966 C9.12256163 11.56105291 6.8942924 9.81542292 3 6 C2.38125 5.46375 1.7625 4.9275 1.125 4.375 C0 3 0 3 0 0 Z " fill="#000000" transform="translate(131,580)"/>
<path d="M0 0 C124.74 0 249.48 0 378 0 C378 0.99 378 1.98 378 3 C377.113125 3.4125 376.22625 3.825 375.3125 4.25 C372.00613786 5.82646381 372.00613786 5.82646381 369.67653495 8.07756555 C366.45115018 10.3942141 364.79744198 10.50258963 360.86294079 10.50895119 C359.62131371 10.52061557 358.37968663 10.53227996 357.10043448 10.54429781 C355.72541685 10.53703165 354.35040119 10.52938291 352.97538757 10.52139282 C351.51246177 10.5274339 350.04954228 10.53521189 348.58663398 10.54457796 C344.56570819 10.56518173 340.54513818 10.56076349 336.52418292 10.55221677 C332.18797794 10.54729009 327.85185949 10.56530093 323.51568604 10.58029175 C315.01991957 10.60581273 306.52427944 10.60936973 298.02848109 10.60469122 C291.12314291 10.60112725 284.21784312 10.60461904 277.31250954 10.61314011 C275.83911053 10.61492567 275.83911053 10.61492567 274.33594588 10.61674731 C272.34054439 10.61917079 270.34514291 10.62159905 268.34974144 10.62403207 C249.62901942 10.64579396 230.90836942 10.64145319 212.18764333 10.62926237 C195.06021302 10.61892547 177.93301027 10.64142901 160.80562498 10.67945881 C143.22241354 10.7182016 125.63930978 10.73472994 108.05605537 10.72721231 C98.18314969 10.72338576 88.31043765 10.72838747 78.43756676 10.75664139 C70.03166471 10.78045344 61.62607544 10.78329688 53.22016915 10.75906105 C48.93145063 10.7472716 44.64330441 10.74511565 40.35462379 10.76906586 C36.42682346 10.79074569 32.50007451 10.78462551 28.57232378 10.75654249 C27.15309453 10.75123771 25.7337834 10.75601644 24.31463441 10.77201422 C16.77626628 10.85107993 11.32737758 10.78059644 5.63417941 5.48150003 C3.87429195 3.8860367 2.15626163 2.97250944 0 2 C0 1.34 0 0.68 0 0 Z " fill="#000000" transform="translate(184,631)"/>
<path d="M0 0 C46.2 0 92.4 0 140 0 C140 0.66 140 1.32 140 2 C132.81198306 3.7906544 125.61366342 5.3220267 118.3125 6.5625 C117.32854248 6.73422729 117.32854248 6.73422729 116.32470703 6.90942383 C101.04897134 9.43154682 85.9633279 10.375248 70.5 10.3125 C69.58546051 10.31100952 68.67092102 10.30951904 67.72866821 10.3079834 C16.31600503 10.15800252 16.31600503 10.15800252 0 2 C0 1.34 0 0.68 0 0 Z " fill="#000000" transform="translate(304,685)"/>
</svg>
