<?xml version="1.0" encoding="UTF-8"?>
<svg version="1.1" xmlns="http://www.w3.org/2000/svg" width="1511" height="698">
<path d="M0 0 C1.25403625 -0.00807175 2.50807251 -0.01614349 3.80010986 -0.02445984 C6.45955035 -0.03826412 9.1188687 -0.04928528 11.77832031 -0.05688477 C14.44281797 -0.06561373 17.10603357 -0.0885426 19.77050781 -0.1184082 C45.00085265 -0.40046115 69.56508652 2.17136437 94.078125 8.23828125 C95.01124512 8.46854004 95.94436523 8.69879883 96.90576172 8.93603516 C133.13619036 18.06852284 168.92526609 34.00473054 199.078125 56.23828125 C200.01084229 56.91842285 200.01084229 56.91842285 200.96240234 57.61230469 C212.99904253 66.39984449 224.36408713 75.78077147 235.390625 85.80078125 C236.24563599 86.57035156 236.24563599 86.57035156 237.11791992 87.35546875 C238.47774665 88.60790187 239.78366512 89.91839827 241.078125 91.23828125 C241.078125 91.89828125 241.078125 92.55828125 241.078125 93.23828125 C242.0371875 93.64046875 242.0371875 93.64046875 243.015625 94.05078125 C245.078125 95.23828125 245.078125 95.23828125 246.078125 98.23828125 C246.738125 98.23828125 247.398125 98.23828125 248.078125 98.23828125 C249.453125 99.56640625 249.453125 99.56640625 251.078125 101.48828125 C251.70074219 102.22175781 252.32335937 102.95523438 252.96484375 103.7109375 C253.66222656 104.54496094 254.35960937 105.37898438 255.078125 106.23828125 C255.84769531 107.14449219 256.61726562 108.05070312 257.41015625 108.984375 C268.15909322 121.73075223 278.91697396 134.92350723 287.10009766 149.49707031 C288.02791998 151.14889977 288.98200764 152.78589543 289.9375 154.421875 C299.04614064 170.09852305 307.09570897 186.37420891 313.3840332 203.39501953 C314.58637572 206.58801495 315.95749838 209.71143527 317.30859375 212.84375 C318.14206597 215.43724478 318.21755273 217.53146015 318.078125 220.23828125 C318.738125 220.23828125 319.398125 220.23828125 320.078125 220.23828125 C321.23228681 224.73886752 322.35910652 229.2454418 323.46630859 233.7578125 C323.87062971 235.39703936 324.2797269 237.03509638 324.69384766 238.671875 C327.6044898 250.23226072 329.76405043 261.80146209 331.390625 273.61328125 C331.56207031 274.82387207 331.73351562 276.03446289 331.91015625 277.28173828 C333.10578524 286.47687251 333.078125 294.78705765 333.078125 304.23828125 C604.338125 304.23828125 875.598125 304.23828125 1155.078125 304.23828125 C1155.078125 307.86828125 1155.078125 311.49828125 1155.078125 315.23828125 C1057.50551651 315.40224108 959.932892 315.55499379 792.4734413 315.79109365 C787.80301384 315.79753551 783.1325864 315.80399156 778.46215898 315.81046122 C660.82145804 315.97340064 543.18072084 316.12068538 -61.6592003 315.80562284 C-65.43927942 315.7991448 -69.21935859 315.79269552 -72.99943776 315.78624527 C-159.37210273 315.63881643 -245.74473389 315.4764453 -355.921875 315.23828125 C-355.921875 311.60828125 -355.921875 307.97828125 -355.921875 304.23828125 C-336.781875 304.23828125 -317.641875 304.23828125 -297.921875 304.23828125 C-297.921875 299.94828125 -297.921875 295.65828125 -297.921875 291.23828125 C-297.59572315 286.96383586 -297.22152208 282.74257222 -296.734375 278.48828125 C-296.60417969 277.33666504 -296.47398437 276.18504883 -296.33984375 274.99853516 C-294.6128054 260.60720312 -292.38495173 245.95541074 -287.58691406 232.23535156 C-286.67826026 229.50672158 -286.10974652 226.74379388 -285.546875 223.92578125 C-284.30488645 218.31722243 -282.42493732 213.322598 -280.109375 208.078125 C-279.00603116 205.43953627 -278.1781879 202.8678072 -277.421875 200.11328125 C-276.13320023 195.50980722 -274.16552752 191.47423521 -271.91015625 187.26953125 C-270.7760405 185.31502742 -270.7760405 185.31502742 -270.921875 183.23828125 C-270.261875 183.23828125 -269.601875 183.23828125 -268.921875 183.23828125 C-268.83035156 182.73039063 -268.73882812 182.2225 -268.64453125 181.69921875 C-267.62348789 178.22215219 -265.99142192 175.08428473 -264.359375 171.86328125 C-264.0072998 171.16299805 -263.65522461 170.46271484 -263.29248047 169.74121094 C-260.2506145 163.75460288 -256.97055485 157.9272547 -253.5859375 152.12890625 C-252.27939672 149.85932838 -251.05545779 147.59704947 -249.921875 145.23828125 C-249.261875 145.23828125 -248.601875 145.23828125 -247.921875 145.23828125 C-247.65093018 144.50544922 -247.37998535 143.77261719 -247.10083008 143.01757812 C-245.200254 138.53711466 -242.36437845 134.73166028 -239.609375 130.73828125 C-239.04025391 129.89652344 -238.47113281 129.05476562 -237.88476562 128.1875 C-234.8591193 123.77582281 -231.81361959 119.93736522 -227.921875 116.23828125 C-226.37704368 114.42512341 -224.8559688 112.59145478 -223.359375 110.73828125 C-222.61558594 109.82046875 -221.87179688 108.90265625 -221.10546875 107.95703125 C-219.63332563 106.12409456 -218.18831424 104.26907575 -216.76953125 102.39453125 C-216.15980469 101.68296875 -215.55007812 100.97140625 -214.921875 100.23828125 C-214.261875 100.23828125 -213.601875 100.23828125 -212.921875 100.23828125 C-212.591875 99.24828125 -212.261875 98.25828125 -211.921875 97.23828125 C-210.31237091 95.51634857 -208.6321068 93.86021304 -206.921875 92.23828125 C-206.39207031 91.73135742 -205.86226562 91.22443359 -205.31640625 90.70214844 C-194.27826483 80.17549984 -182.99632937 70.1341998 -170.734375 61.05078125 C-170.08597656 60.56843018 -169.43757812 60.0860791 -168.76953125 59.58911133 C-164.16820801 56.23828125 -164.16820801 56.23828125 -161.921875 56.23828125 C-161.921875 55.57828125 -161.921875 54.91828125 -161.921875 54.23828125 C-160.43505859 53.10009766 -160.43505859 53.10009766 -158.3203125 51.83984375 C-157.53124512 51.36643555 -156.74217773 50.89302734 -155.92919922 50.40527344 C-155.06053223 49.89641602 -154.19186523 49.38755859 -153.296875 48.86328125 C-152.4011377 48.33379883 -151.50540039 47.80431641 -150.58251953 47.25878906 C-134.7834261 37.98582488 -118.87835748 29.21158463 -101.921875 22.23828125 C-100.76679443 21.75198242 -100.76679443 21.75198242 -99.58837891 21.25585938 C-74.36665994 10.71298561 -47.89235178 5.01001459 -20.921875 1.23828125 C-19.73867676 1.05942383 -18.55547852 0.88056641 -17.33642578 0.69628906 C-11.57756792 -0.00831519 -5.79428322 0.03617174 0 0 Z " fill="#000000" transform="translate(355.921875,29.76171875)"/>
<path d="M0 0 C17.30819472 -0.06973181 34.61633251 -0.12312873 51.92463589 -0.15543652 C59.96290841 -0.17084268 68.00109154 -0.1918111 76.03930664 -0.22631836 C83.05322065 -0.2564138 90.06706985 -0.2756203 97.08104664 -0.28226548 C100.78782598 -0.286144 104.49442006 -0.29512495 108.20113945 -0.31719017 C138.4359984 -0.48998858 169.99579137 1.83296985 193 24 C204.61857681 36.27510598 208.74509549 49.91590421 208.3125 66.515625 C207.46859482 82.76079971 200.70463277 96.92297841 190 109 C189.48050781 109.61359375 188.96101562 110.2271875 188.42578125 110.859375 C180.94761552 119.07217162 170.23021025 124.94319249 160 129 C161.26575751 131.64398662 162.63675287 134.04867577 164.328125 136.44140625 C164.79114014 137.09802246 165.25415527 137.75463867 165.73120117 138.43115234 C166.23240479 139.13449707 166.7336084 139.8378418 167.25 140.5625 C168.0375769 141.67165771 168.0375769 141.67165771 168.84106445 142.80322266 C177.87387228 155.47912594 186.95029107 168.10515735 197 180 C198.25490234 181.53140625 198.25490234 181.53140625 199.53515625 183.09375 C212.49931447 198.84437574 227.52789708 216.31598713 249 219 C249 222.3 249 225.6 249 229 C241.42352398 229.07473004 233.84726742 229.12887476 226.27050781 229.16479492 C223.69852964 229.17978577 221.1265766 229.20018528 218.5546875 229.22631836 C178.38340296 229.62397665 178.38340296 229.62397665 163.3203125 215.453125 C158.45383008 210.30808971 154.25857958 204.6462349 150 199 C147.29414441 195.43561559 144.5846388 191.87400901 141.875 188.3125 C141.18180664 187.40097168 140.48861328 186.48944336 139.77441406 185.55029297 C131.65675121 174.89416364 123.10902551 164.81881971 114 155 C112.39092107 153.25451563 110.78642692 151.5047887 109.1875 149.75 C108.52105469 149.02296875 107.85460937 148.2959375 107.16796875 147.546875 C105 145 105 145 103.82226562 142.95898438 C101.73588917 139.54850292 100.32542119 137.36988498 96.36499023 136.26464844 C93.2592416 135.9890339 90.24209295 135.94241823 87.125 136 C86.05507813 135.98839844 84.98515625 135.97679687 83.8828125 135.96484375 C81.25325483 135.94136556 78.6291113 135.95415451 76 136 C76.06984981 141.8129708 76.15825799 147.6252873 76.26245117 153.43774414 C76.295308 155.40707007 76.32345596 157.37648132 76.34643555 159.34594727 C76.48576948 187.73984901 76.48576948 187.73984901 88 213 C91.21409427 215.9924326 94.97285297 217.37365216 99 219 C99 222.3 99 225.6 99 229 C66.33 229 33.66 229 0 229 C0 225.37 0 221.74 0 218 C1.8253125 217.4121875 1.8253125 217.4121875 3.6875 216.8125 C10.05345528 214.34681309 12.84371841 210.77353053 15.625 204.625 C21.25547339 190.21240458 22.15232008 174.88210387 22.14526367 159.56616211 C22.14862228 158.49277588 22.1519809 157.41938965 22.15544128 156.31347656 C22.16485863 152.80142017 22.16688989 149.28941195 22.16796875 145.77734375 C22.17118832 143.30652345 22.1745529 140.83570334 22.17805481 138.36488342 C22.18402351 133.19645751 22.1858971 128.02804826 22.18530273 122.85961914 C22.18520138 116.28598854 22.19883629 109.71246659 22.21607494 103.13886166 C22.227278 98.0365603 22.22921939 92.93428451 22.22869301 87.83197212 C22.22986131 85.41105336 22.23421723 82.99013367 22.24202538 80.56922722 C23.21408516 46.72593643 23.21408516 46.72593643 11 16 C7.59812814 13.0544768 4.35501272 12.08875318 0 11 C0 7.37 0 3.74 0 0 Z M76 15 C76 49.98 76 84.96 76 121 C109.00760426 122.9809522 109.00760426 122.9809522 136.0703125 109.046875 C137.83907082 107.10200654 139.43765396 105.1132786 141 103 C141.67289063 102.12988281 141.67289063 102.12988281 142.359375 101.2421875 C153.00188526 86.0667562 154.49967381 65.28262008 151.75 47.5625 C149.13041735 35.11948242 143.06783124 25.17315068 132.40625 18.19140625 C115.65099031 9.8953767 91.24984421 15 76 15 Z " fill="#000000" transform="translate(713,93)"/>
<path d="M0 0 C0.33 48.84 0.66 97.68 1 148 C5.29 143.71 9.58 139.42 14 135 C18.25 131.25 18.25 131.25 20.10546875 129.66796875 C26.59613666 123.95350443 32.41054533 117.58239173 38 111 C38.91251226 109.93989051 39.8252941 108.88001304 40.73828125 107.8203125 C41.72175596 106.67221906 42.70482787 105.52378045 43.6875 104.375 C44.15140137 103.83649414 44.61530273 103.29798828 45.09326172 102.74316406 C48.00117391 99.32319963 50.82690698 95.94434889 53 92 C52.67 90.35 52.34 88.7 52 87 C52 83.37 52 79.74 52 76 C70.48 76 88.96 76 108 76 C108 79.96 108 83.92 108 88 C107.1028125 88.18433594 106.205625 88.36867188 105.28125 88.55859375 C83.08439909 93.71798575 59.84853507 109.79664698 44 126 C53.62311095 140.1773528 63.32417817 154.29744931 73.14257812 168.34033203 C74.88615207 170.83697959 76.62334457 173.33794805 78.359375 175.83984375 C87.07609576 188.35978027 96.56760007 199.88062733 107 211 C107.60457031 211.6703125 108.20914062 212.340625 108.83203125 213.03125 C116.70455731 221.45925844 125.76094693 226.63388357 137 229 C137 232.63 137 236.26 137 240 C104.66 240 72.32 240 39 240 C39 231 39 231 41 228 C41.66 228 42.32 228 43 228 C41.97874433 219.77426784 39.62894523 213.26032555 35.6875 206 C35.15624512 205.00379639 34.62499023 204.00759277 34.07763672 202.98120117 C29.21226682 194.04331009 23.66918886 185.69670753 17.74121094 177.43701172 C15.83990738 174.77593318 13.96856012 172.09540591 12.1015625 169.41015625 C9.64014046 165.87166924 7.17766715 162.33401656 4.703125 158.8046875 C3.95530762 157.73710205 3.95530762 157.73710205 3.19238281 156.64794922 C2.10155083 155.04876155 2.10155083 155.04876155 1 154 C-0.5955394 191.34050424 -0.5955394 191.34050424 13.3125 224.875 C16.5787284 227.4575992 18.96389301 228.12946712 23 229 C23 232.63 23 236.26 23 240 C-7.69 240 -38.38 240 -70 240 C-70 236.37 -70 232.74 -70 229 C-61.25 225 -61.25 225 -59 225 C-48.21187417 203.7717524 -47.84195315 182.61889674 -47.8671875 159.33203125 C-47.86651236 157.12546274 -47.86554059 154.91889431 -47.86428833 152.71232605 C-47.86281971 148.10044645 -47.86493793 143.48858631 -47.86962891 138.87670898 C-47.87530882 133.01138402 -47.87205286 127.14610501 -47.86605644 121.28078175 C-47.86241381 116.72586227 -47.86360657 112.17095338 -47.86618423 107.61603355 C-47.86684418 105.45582766 -47.8660583 103.29562075 -47.86370468 101.13541603 C-46.04877244 68.46451495 -46.04877244 68.46451495 -58.08203125 39.84765625 C-61.17188883 37.01400577 -64.03466884 34.49146593 -67.78515625 32.58203125 C-68.51605469 32.05996094 -69.24695312 31.53789063 -70 31 C-70.13842773 28.40112305 -70.13842773 28.40112305 -70 26 C-57.99854127 20.30419633 -45.86078864 14.94177302 -33.6875 9.625 C-30.88411965 8.39889718 -28.08096478 7.17228187 -25.2780304 5.94515991 C-23.54997032 5.18879109 -21.82161872 4.43308788 -20.09294128 3.6781311 C-19.32065689 3.34042694 -18.5483725 3.00272278 -17.75268555 2.65478516 C-17.07400925 2.35835114 -16.39533295 2.06191711 -15.6960907 1.75650024 C-9.26795285 -1.11061521 -11.17196273 0 0 0 Z " fill="#000000" transform="translate(1172,82)"/>
<path d="M0 0 C12.18350414 10.69587381 16.95434779 25.39372218 18.16891479 41.1979599 C18.39298454 45.80304598 18.41968865 50.4066832 18.41069031 55.0165062 C18.40611698 57.56635183 18.42046919 60.11553744 18.43908691 62.66531372 C18.48156712 68.98503472 18.49310499 75.30473401 18.50531006 81.62457275 C18.51689427 87.00048375 18.5405779 92.37608431 18.58000183 97.75186539 C18.59343175 100.2455943 18.58943066 102.73888556 18.58459473 105.2326355 C18.29157498 118.1932982 18.29157498 118.1932982 23.36950684 129.70040894 C26.20077416 131.95708182 29.50525139 132.10901051 33 132 C37.61418441 130.56279502 40.52104901 129.22879874 43 125 C47.39158329 126.4638611 47.87947433 128.97831338 50 133 C42.56793398 145.16156258 34.25864592 153.20602141 20.19921875 157.03515625 C7.32780305 159.90759083 -7.40057322 161.50923624 -19.24609375 154.7109375 C-24.05375573 151.4117346 -26.25928845 148.09506729 -29 143 C-30.54107422 143.79664063 -30.54107422 143.79664063 -32.11328125 144.609375 C-49.66275532 153.59439985 -68.5853298 161.42502639 -88.5 155.375 C-98.30432463 151.57251193 -106.78118574 144.33405281 -111.578125 134.89453125 C-116.55980966 123.14176371 -118.51109927 109.46225968 -114.0390625 97.1328125 C-112.17966313 93.31615064 -109.80517662 90.16991589 -107 87 C-106.22849609 86.10667969 -106.22849609 86.10667969 -105.44140625 85.1953125 C-90.98802216 69.59813543 -66.63202448 63.44744383 -46 62 C-41.66516448 61.92352861 -37.33495107 61.94052659 -33 62 C-33.04461156 56.54085267 -33.11491283 51.08281209 -33.20751953 45.62426758 C-33.23548684 43.77312094 -33.25681996 41.92186026 -33.27099609 40.07055664 C-32.93875313 22.77033606 -32.93875313 22.77033606 -39.39160156 7.18676758 C-42.25956871 5.07061878 -45.63312496 5.51807475 -49 6 C-53.7065628 8.03237939 -56.714598 11.23495748 -58.87890625 15.890625 C-61.76509781 23.19673311 -62.1386345 30.09756769 -62.0625 37.875 C-62.05798828 38.75414062 -62.05347656 39.63328125 -62.04882812 40.5390625 C-62.03712337 42.69273803 -62.01919069 44.84637817 -62 47 C-78.58979665 51.33132622 -93.51685823 52.49438059 -110 47 C-112.78188855 38.65433434 -110.28085242 29.42566408 -106.96875 21.546875 C-99.81410016 7.7209976 -87.37936642 -0.75298372 -73 -6 C-49.46853559 -13.16148904 -20.71488305 -15.67938746 0 0 Z M-58.875 81.5 C-59.57625 82.325 -60.2775 83.15 -61 84 C-61.70125 84.763125 -62.4025 85.52625 -63.125 86.3125 C-68.86089966 94.53395618 -69.00108643 103.3356656 -68 113 C-65.93275232 120.46506105 -61.68486422 125.2100456 -55 129 C-51.74275243 130.08574919 -49.1778466 130.23676851 -45.75 130.3125 C-44.65171875 130.34988281 -43.5534375 130.38726563 -42.421875 130.42578125 C-38.06094315 129.88315388 -35.67455825 128.36421451 -32 126 C-31.87940953 107.96708717 -32.0424916 90.01440007 -33 72 C-42.57446666 72 -51.69202322 75.25393323 -58.875 81.5 Z " fill="#000000" transform="translate(1080,435)"/>
<path d="M0 0 C12.18350414 10.69587381 16.95434779 25.39372218 18.16891479 41.1979599 C18.39298454 45.80304598 18.41968865 50.4066832 18.41069031 55.0165062 C18.40611698 57.56635183 18.42046919 60.11553744 18.43908691 62.66531372 C18.48156712 68.98503472 18.49310499 75.30473401 18.50531006 81.62457275 C18.51689427 87.00048375 18.5405779 92.37608431 18.58000183 97.75186539 C18.59343175 100.2455943 18.58943066 102.73888556 18.58459473 105.2326355 C18.29157498 118.1932982 18.29157498 118.1932982 23.36950684 129.70040894 C26.20077416 131.95708182 29.50525139 132.10901051 33 132 C37.61418441 130.56279502 40.52104901 129.22879874 43 125 C47.39158329 126.4638611 47.87947433 128.97831338 50 133 C42.56793398 145.16156258 34.25864592 153.20602141 20.19921875 157.03515625 C7.32780305 159.90759083 -7.40057322 161.50923624 -19.24609375 154.7109375 C-24.05375573 151.4117346 -26.25928845 148.09506729 -29 143 C-30.54107422 143.79664063 -30.54107422 143.79664063 -32.11328125 144.609375 C-49.66275532 153.59439985 -68.5853298 161.42502639 -88.5 155.375 C-98.30432463 151.57251193 -106.78118574 144.33405281 -111.578125 134.89453125 C-116.55980966 123.14176371 -118.51109927 109.46225968 -114.0390625 97.1328125 C-112.17966313 93.31615064 -109.80517662 90.16991589 -107 87 C-106.22849609 86.10667969 -106.22849609 86.10667969 -105.44140625 85.1953125 C-90.98802216 69.59813543 -66.63202448 63.44744383 -46 62 C-41.66516448 61.92352861 -37.33495107 61.94052659 -33 62 C-33.04461156 56.54085267 -33.11491283 51.08281209 -33.20751953 45.62426758 C-33.23548684 43.77312094 -33.25681996 41.92186026 -33.27099609 40.07055664 C-32.93875313 22.77033606 -32.93875313 22.77033606 -39.39160156 7.18676758 C-42.25956871 5.07061878 -45.63312496 5.51807475 -49 6 C-53.7065628 8.03237939 -56.714598 11.23495748 -58.87890625 15.890625 C-61.76509781 23.19673311 -62.1386345 30.09756769 -62.0625 37.875 C-62.05798828 38.75414062 -62.05347656 39.63328125 -62.04882812 40.5390625 C-62.03712337 42.69273803 -62.01919069 44.84637817 -62 47 C-78.58979665 51.33132622 -93.51685823 52.49438059 -110 47 C-112.78188855 38.65433434 -110.28085242 29.42566408 -106.96875 21.546875 C-99.81410016 7.7209976 -87.37936642 -0.75298372 -73 -6 C-49.46853559 -13.16148904 -20.71488305 -15.67938746 0 0 Z M-58.875 81.5 C-59.57625 82.325 -60.2775 83.15 -61 84 C-61.70125 84.763125 -62.4025 85.52625 -63.125 86.3125 C-68.86089966 94.53395618 -69.00108643 103.3356656 -68 113 C-65.93275232 120.46506105 -61.68486422 125.2100456 -55 129 C-51.74275243 130.08574919 -49.1778466 130.23676851 -45.75 130.3125 C-44.65171875 130.34988281 -43.5534375 130.38726562 -42.421875 130.42578125 C-38.06094315 129.88315388 -35.67455825 128.36421451 -32 126 C-31.87940953 107.96708717 -32.0424916 90.01440007 -33 72 C-42.57446666 72 -51.69202322 75.25393323 -58.875 81.5 Z " fill="#000000" transform="translate(1422,168)"/>
<path d="M0 0 C1.16015625 -0.020625 2.3203125 -0.04125 3.515625 -0.0625 C20.48193398 -0.1384119 34.44257717 5.24562986 46.73828125 17.0859375 C47.44339844 17.80007812 48.14851563 18.51421875 48.875 19.25 C49.42542969 19.77851563 49.97585938 20.30703125 50.54296875 20.8515625 C64.64443496 35.59572288 69.93095057 59.4459133 70 79.125 C69.96192146 80.83341708 69.9208905 82.54177491 69.875 84.25 C56.01971304 85.42552143 42.14684353 85.58496967 28.25 85.8125 C25.78442355 85.85537161 23.31884738 85.89825905 20.85327148 85.94116211 C4.19272538 86.2220497 -12.46216399 86.39778064 -29.125 86.25 C-26.25405314 101.51134911 -21.55204513 117.90149979 -9.125 128.25 C3.46513171 136.69323373 16.88508515 139.34682304 31.875 138.25 C35.29271981 137.4406757 37.91578452 136.11954047 40.875 134.25 C41.73351563 133.73695313 42.59203125 133.22390625 43.4765625 132.6953125 C51.73059234 127.27787883 57.15034041 120.13386388 62.875 112.25 C64.855 113.9 66.835 115.55 68.875 117.25 C63.34520472 135.40042854 47.3510227 149.69114567 31.14697266 158.51660156 C11.7816775 168.53361731 -11.18001165 170.89721187 -32.125 164.25 C-41.88761031 161.02260771 -50.20117298 156.95969224 -58.125 150.25 C-58.84171875 149.64542969 -59.5584375 149.04085937 -60.296875 148.41796875 C-73.29939016 136.44859917 -80.19227442 118.52292222 -81.33007812 101.11181641 C-81.42835487 97.77993404 -81.45391538 94.4582741 -81.4375 91.125 C-81.43258545 89.94010986 -81.4276709 88.75521973 -81.42260742 87.53442383 C-81.11516744 64.38182797 -74.81276498 41.81913901 -59.125 24.25 C-58.44695313 23.47785156 -57.76890625 22.70570313 -57.0703125 21.91015625 C-41.95913499 5.71960891 -21.47923764 0.09359145 0 0 Z M-16.69140625 21.63671875 C-27.63652313 33.95370314 -31.19039873 52.18428485 -31.125 68.25 C-30.82531529 70.25531798 -30.49845615 72.25710221 -30.125 74.25 C-24.73562585 74.32464507 -19.34655848 74.37883434 -13.95678711 74.41479492 C-12.12665559 74.42979997 -10.29655954 74.45021059 -8.46655273 74.47631836 C-5.82266442 74.51306906 -3.17925508 74.52980937 -0.53515625 74.54296875 C0.27146957 74.55845261 1.0780954 74.57393646 1.90916443 74.58988953 C8.46078355 74.59179248 14.83499745 73.52742564 20.1796875 69.5234375 C25.95591594 62.54023595 28.48534774 55.91246913 28.16015625 46.79296875 C26.893568 35.49777766 21.4688342 26.53061909 12.875 19.25 C3.59675857 12.9239263 -8.52126236 14.1308142 -16.69140625 21.63671875 Z " fill="#000000" transform="translate(1026.125,156.75)"/>
<path d="M0 0 C32.01 0 64.02 0 97 0 C97 3.3 97 6.6 97 10 C95.37750059 10.83819158 93.75191503 11.6704116 92.125 12.5 C91.22007812 12.9640625 90.31515625 13.428125 89.3828125 13.90625 C87 15 87 15 85 15 C84.62875 15.9590625 84.62875 15.9590625 84.25 16.9375 C83.5702803 18.60281326 82.87161244 20.26278476 82.08203125 21.87890625 C76.0390674 34.45104943 74.85195532 47.81571644 74.83886719 61.55029297 C74.83390228 62.80172592 74.82893738 64.05315887 74.82382202 65.34251404 C74.81175557 68.76256899 74.80426534 72.18256311 74.79981136 75.60263205 C74.79686734 77.74776688 74.79275993 79.89289652 74.78830719 82.03802872 C74.77464477 88.7736419 74.76497419 95.50924304 74.7611053 102.24486911 C74.75663925 109.97437545 74.73915402 117.70370365 74.7101047 125.43315589 C74.68834188 131.4360644 74.67839317 137.43892336 74.67706418 143.44187081 C74.67602574 147.01327714 74.67032775 150.58451581 74.65224457 154.15587997 C73.77412795 184.55857431 73.77412795 184.55857431 85 212 C85 212.66 85 213.32 85 214 C85.680625 214.268125 86.36125 214.53625 87.0625 214.8125 C90.39710809 216.16053306 93.69743237 217.57536298 97 219 C97 222.3 97 225.6 97 229 C64.99 229 32.98 229 0 229 C0 225.37 0 221.74 0 218 C1.381875 217.62875 2.76375 217.2575 4.1875 216.875 C8.82521173 215.27829173 11.6306378 213.34245476 14 209 C20.72168806 194.30243136 22.14480895 179.75435794 22.16113281 163.78344727 C22.16609772 162.60306381 22.17106262 161.42268036 22.17617798 160.20652771 C22.19070385 156.32648113 22.19758666 152.44647548 22.203125 148.56640625 C22.20586604 147.21776748 22.20872284 145.86912893 22.21169281 144.52049065 C22.22533774 138.17679264 22.23501766 131.83310732 22.2388947 125.48939568 C22.24336094 118.2263087 22.26085451 110.96341126 22.2898953 103.70038182 C22.31169491 98.04727234 22.32160869 92.39421545 22.32293582 86.74106449 C22.32397139 83.38310088 22.33111536 80.02545655 22.34775543 76.66751289 C23.04882983 45.17362217 23.04882983 45.17362217 11.75 16.375 C8.03295309 13.16482313 4.72825382 12.27027714 0 11 C0 7.37 0 3.74 0 0 Z " fill="#000000" transform="translate(712,360)"/>
<path d="M0 0 C0.33 15.51 0.66 31.02 1 47 C3.97 40.73 6.94 34.46 10 28 C16.9955314 16.92374195 24.87049951 4.66022207 38.40234375 1.42578125 C45.29053618 0.29673918 52.05232584 -0.00034762 58.22265625 3.62109375 C66.22614934 9.83039718 69.64361877 19.81709667 70.9375 29.5625 C71.41972364 37.59956072 69.05434726 44.72035644 64 51 C61.51785335 53.65944284 60.14205185 53.97717024 56.5 54.5625 C50.38559741 54.35639654 45.23458035 50.86855003 40 48 C34.09773082 44.76816623 29.65737819 43.92974029 23 45 C14.46071412 48.13531989 9.14352901 54.77381507 4 62 C3.20964355 63.08462524 3.20964355 63.08462524 2.40332031 64.19116211 C0.64136927 67.717823 0.58623764 70.77322677 0.63671875 74.625 C0.63531387 75.3605159 0.633909 76.0960318 0.63246155 76.85383606 C0.6338241 79.23630799 0.65896707 81.61770914 0.6875 84 C0.69589905 85.21651749 0.69589905 85.21651749 0.70446777 86.45761108 C0.02537173 119.61426574 0.02537173 119.61426574 13 149 C15.38241358 150.60686193 17.17922744 151.20166814 20 152 C20.99 152.33 21.98 152.66 23 153 C23 156.63 23 160.26 23 164 C-7.69 164 -38.38 164 -70 164 C-70 160.37 -70 156.74 -70 153 C-68.618125 152.62875 -67.23625 152.2575 -65.8125 151.875 C-61.200379 150.29907151 -58.38059132 148.30099398 -56 144 C-43.84656856 118.46463142 -43.44347468 75.79007332 -52 49 C-55.6290171 40.65581632 -62.71130682 35.98886281 -70 31 C-69.94775391 28.72729492 -69.94775391 28.72729492 -69 26 C-66.57739271 24.51013332 -64.43827871 23.43629071 -61.8359375 22.36328125 C-60.73203674 21.88111397 -60.73203674 21.88111397 -59.60583496 21.38920593 C-57.20315043 20.34491843 -54.78987218 19.32824791 -52.375 18.3125 C-50.72345302 17.60376832 -49.07257494 16.89347593 -47.42236328 16.18164062 C-44.13916204 14.76738517 -40.85202903 13.36284342 -37.5625 11.96337891 C-33.6257597 10.28051238 -29.73024 8.52627569 -25.84375 6.73046875 C-24.81717285 6.2614917 -23.7905957 5.79251465 -22.73291016 5.30932617 C-20.89344064 4.46658954 -19.05925528 3.61217088 -17.23193359 2.7434082 C-16.41031738 2.3743335 -15.58870117 2.00525879 -14.7421875 1.625 C-14.0601123 1.30789063 -13.37803711 0.99078125 -12.67529297 0.6640625 C-10 0 -10 0 0 0 Z " fill="#000000" transform="translate(889,425)"/>
<path d="M0 0 C1.18085132 0.00023397 1.18085132 0.00023397 2.38555821 0.00047267 C3.74565853 -0.00289827 3.74565853 -0.00289827 5.13323563 -0.00633731 C6.64780807 -0.00239679 6.64780807 -0.00239679 8.19297793 0.00162334 C9.25949557 0.00046949 10.32601321 -0.00068435 11.42484957 -0.00187316 C15.04685618 -0.00454839 18.66881954 -0.00001026 22.29082396 0.00441665 C24.89443615 0.00398113 27.4980483 0.00310659 30.10166022 0.00182748 C35.78726392 -0.00025208 41.47285719 0.0014074 47.15845969 0.00546569 C55.61283389 0.01148358 64.06720146 0.01180309 72.52157742 0.0109237 C86.74096248 0.00960761 100.96034291 0.01295951 115.17972663 0.01894111 C129.26551559 0.02485136 143.35130262 0.02870568 157.43709281 0.02979392 C158.31180889 0.02986266 159.18652496 0.0299314 160.08774759 0.03000222 C164.52970697 0.03034054 168.97166635 0.03064193 173.41362574 0.0309291 C204.90344976 0.03303138 236.39327126 0.03977396 267.88309386 0.04923171 C298.48140101 0.05841112 329.07970748 0.06549719 359.67801574 0.06973952 C361.09194237 0.06993681 361.09194237 0.06993681 362.53443317 0.07013809 C372.0002989 0.07145657 381.46616463 0.07273239 390.93203037 0.07397695 C410.21633164 0.07651339 429.50063286 0.07933464 448.78493407 0.08232803 C449.67166029 0.08246532 450.55838651 0.08260261 451.47198322 0.08274406 C510.71977962 0.09194992 569.96757461 0.10779573 629.21536925 0.12467116 C630.24696551 3.21945995 630.19019787 4.65098509 629.77786925 7.81217116 C629.62511534 9.02453445 629.62511534 9.02453445 629.4692755 10.26138991 C629.38548644 10.87627273 629.30169738 11.49115554 629.21536925 12.12467116 C569.16722846 12.14180172 509.11908739 12.15770242 449.07094481 12.1670143 C448.18294822 12.16715236 447.29495162 12.16729042 446.38004604 12.16743266 C427.08389882 12.17042521 407.78775158 12.17319544 388.4916043 12.17573649 C379.02949014 12.17698389 369.56737598 12.17828043 360.10526183 12.17960281 C359.16364169 12.17973356 358.22202155 12.17986432 357.25186747 12.17999905 C326.70271632 12.18426434 296.15356701 12.19177859 265.60441697 12.20096839 C234.22479177 12.21039092 202.84516759 12.21655427 171.46554099 12.21858615 C167.03866426 12.21887433 162.61178753 12.21919997 158.1849108 12.21954841 C156.87793473 12.21964954 156.87793473 12.21964954 155.5445551 12.21975272 C141.48939351 12.22093683 127.43423506 12.2255813 113.37907476 12.2315032 C99.26668324 12.23737597 85.15429486 12.23964279 71.04190216 12.23817254 C62.64598254 12.23740896 54.25007435 12.23946632 45.85415678 12.24546871 C39.60242832 12.2496349 33.35071104 12.24864628 27.09898217 12.24557006 C24.55658518 12.24514411 22.01418726 12.24644203 19.47179214 12.24955435 C16.04029532 12.25351387 12.60885631 12.25143735 9.17736056 12.24771899 C8.16924995 12.25034601 7.16113933 12.25297302 6.12247991 12.25567964 C5.21717978 12.25343235 4.31187965 12.25118505 3.37914618 12.24886966 C2.59315982 12.24902564 1.80717345 12.24918162 0.99736932 12.24934233 C-0.78463075 12.12467116 -0.78463075 12.12467116 -1.78463075 11.12467116 C-2.04392787 9.46516957 -2.2434409 7.79606624 -2.40963075 6.12467116 C-2.50502137 5.21717116 -2.600412 4.30967116 -2.69869325 3.37467116 C-2.72705262 2.63217116 -2.755412 1.88967116 -2.78463075 1.12467116 C-1.78463075 0.12467116 -1.78463075 0.12467116 0 0 Z " fill="#000000" transform="translate(59.78463074937463,348.87532883509994)"/>
<path d="M0 0 C0.89879779 -0.00250352 1.79759557 -0.00500704 2.72362965 -0.00758642 C4.22488319 -0.00407467 4.22488319 -0.00407467 5.75646508 -0.00049198 C7.34223055 -0.00267214 7.34223055 -0.00267214 8.96003169 -0.00489634 C12.55029216 -0.00858482 16.14051093 -0.00505683 19.73077118 -0.00163448 C22.31162141 -0.00278518 24.89247148 -0.00437235 27.4733212 -0.00636172 C33.10927111 -0.00998621 38.74521145 -0.00985603 44.38116181 -0.00731456 C52.76186452 -0.00354558 61.1425591 -0.00545878 69.52326175 -0.00852287 C84.48825023 -0.0138002 99.45323444 -0.01332759 114.41822332 -0.01044396 C127.51525638 -0.00793254 140.61228789 -0.00726976 153.70932114 -0.0084666 C154.57667011 -0.00854299 155.44401908 -0.00861937 156.33765135 -0.00869807 C159.85815534 -0.00900939 163.37865932 -0.00932779 166.8991633 -0.00965784 C199.95465916 -0.01271991 233.01015231 -0.00993861 266.06564775 -0.00456094 C295.45639388 0.00018417 324.84713568 -0.00023891 354.23788178 -0.00502193 C387.2282879 -0.01037276 420.21869161 -0.01250194 453.2090981 -0.00940967 C456.7239633 -0.00908893 460.2388285 -0.00877609 463.7536937 -0.0084666 C465.05194885 -0.00834799 465.05194885 -0.00834799 466.37643137 -0.00822697 C479.4663051 -0.00708785 492.55617709 -0.00842287 505.64605057 -0.01094615 C520.52624275 -0.01380018 535.40642999 -0.01310182 550.28662156 -0.00766541 C558.62213672 -0.00472081 566.9576412 -0.00454939 575.29315609 -0.00831159 C581.50343247 -0.01080622 587.71369614 -0.00811665 593.92397095 -0.00333701 C596.4468578 -0.00221316 598.96974607 -0.00280331 601.49263202 -0.0052128 C604.90260862 -0.00822151 608.31252561 -0.00516726 611.72249901 -0.00049198 C612.71865237 -0.00283314 613.71480573 -0.00517431 614.74114555 -0.00758642 C615.64495037 -0.0050829 616.5487552 -0.00257938 617.47994804 0 C618.26040733 0.00006776 619.04086661 0.00013552 619.84497618 0.00020533 C621.86532319 0.12534916 621.86532319 0.12534916 624.86532319 1.12534916 C624.72489441 2.77165244 624.57782989 4.41739096 624.42782319 6.06284916 C624.34661225 6.9793726 624.26540131 7.89589604 624.18172944 8.84019291 C623.86532319 11.12534916 623.86532319 11.12534916 622.86532319 12.12534916 C621.4844483 12.22224314 620.09864045 12.24982325 618.71437031 12.24954766 C617.81193701 12.25179495 616.90950372 12.25404225 615.97972396 12.25635764 C614.97482204 12.25373063 613.96992011 12.25110361 612.93456662 12.24839699 C611.8731141 12.24955084 610.81166158 12.25070468 609.71804383 12.25189349 C606.11326736 12.2545687 602.50853435 12.2500306 598.90376008 12.24560368 C596.31252228 12.2460392 593.72128454 12.24691374 591.13004702 12.24819285 C585.47148044 12.2502724 579.81292435 12.24861294 574.15435898 12.24455464 C565.74018854 12.23853673 557.32602475 12.23821724 548.91185255 12.23909663 C534.76008422 12.24041272 520.60832055 12.23706082 506.45655358 12.23107922 C492.4377507 12.22516896 478.41894976 12.22131464 464.40014565 12.22022641 C463.52958861 12.22015767 462.65903157 12.22008893 461.76209402 12.22001811 C457.34125477 12.21967979 452.92041553 12.2193784 448.49957628 12.21909123 C417.15949515 12.21698895 385.81941656 12.21024638 354.47933686 12.20078862 C324.02653752 12.1916092 293.57373887 12.18452313 263.12093842 12.1802808 C262.18280283 12.18014928 261.24466725 12.18001775 260.27810331 12.17988224 C250.85724778 12.17856376 241.43639225 12.17728794 232.01553671 12.17604338 C212.82293315 12.17350694 193.63032964 12.17068569 174.43772614 12.1676923 C173.11396151 12.16748637 173.11396151 12.16748637 171.76345416 12.16727627 C112.79740944 12.15807041 53.83136614 12.14222461 -5.13467681 12.12534916 C-5.16154961 10.31292865 -5.18101397 8.50039683 -5.19717681 6.68784916 C-5.20877838 5.67851323 -5.22037994 4.66917729 -5.23233306 3.62925541 C-5.072413 -0.47109508 -3.67923662 0.00031948 0 0 Z " fill="#000000" transform="translate(64.13467681407928,367.8746508359909)"/>
<path d="M0 0 C201.63 0 403.26 0 611 0 C609 9 609 9 606 12 C604.09912229 12.37448616 604.09912229 12.37448616 601.90579277 12.37374616 C601.06705975 12.38074426 600.22832673 12.38774237 599.36417755 12.39495254 C598.44083781 12.38735734 597.51749806 12.37976215 596.56617832 12.3719368 C595.09095857 12.37757849 595.09095857 12.37757849 593.5859364 12.38333416 C590.25811917 12.39234688 586.93072249 12.37978679 583.60292053 12.36749268 C581.20570039 12.3695152 578.80848105 12.3728524 576.41126436 12.37739825 C571.18224574 12.3842665 565.95331668 12.38174426 560.72430801 12.37107468 C552.94785583 12.35525111 545.17147304 12.35654795 537.39500964 12.36136696 C524.30988859 12.36896718 511.22480967 12.36242455 498.13969612 12.34775543 C485.16640964 12.33322917 472.19314161 12.32446943 459.21984673 12.32357025 C458.41332892 12.32350916 457.60681111 12.32344806 456.77585337 12.32338512 C453.50189486 12.3231556 450.22793635 12.32296842 446.95397784 12.32283698 C417.08950491 12.32162454 387.22505775 12.30591218 357.3605957 12.28125 C329.1922994 12.25799359 301.02401872 12.24378867 272.85571289 12.24023438 C271.98924008 12.24012286 271.12276728 12.24001134 270.23003772 12.23989645 C266.73663466 12.23944758 263.24323159 12.2390056 259.74982853 12.23856402 C258.00874504 12.23834364 256.26766156 12.23812235 254.52657807 12.23790014 C252.78966098 12.23767878 251.05274389 12.23746001 249.31582681 12.23724384 C221.6020804 12.23372192 193.88833691 12.22225716 166.17459344 12.2094375 C158.06828708 12.20572481 149.96198092 12.20245845 141.85567403 12.20018864 C124.79988738 12.19536748 107.74411008 12.18822331 90.68832988 12.17204097 C83.63587699 12.16542068 76.58343156 12.16024765 69.53097534 12.15958023 C63.06404634 12.15896583 56.59713409 12.15332826 50.13021129 12.14426073 C47.80089041 12.14177213 45.47156705 12.14091123 43.14224506 12.14191952 C29.39517531 12.14671741 15.72284856 11.83552392 2 11 C1.34 7.37 0.68 3.74 0 0 Z " fill="#000000" transform="translate(68,425)"/>
<path d="M0 0 C1.16587718 0.00023397 1.16587718 0.00023397 2.35530743 0.00047267 C3.25057364 -0.00177462 4.14583985 -0.00402192 5.06823533 -0.00633731 C6.56355563 -0.00239679 6.56355563 -0.00239679 8.08908441 0.00162334 C9.14209506 0.00046949 10.19510571 -0.00068435 11.28002578 -0.00187316 C14.85608536 -0.00454834 18.43210111 -0.0000103 22.00815847 0.00441665 C24.57877226 0.00398113 27.14938601 0.00310658 29.71999952 0.00182748 C35.33350422 -0.00025206 40.94699836 0.00140738 46.56050184 0.00546569 C54.90766602 0.01148362 63.25482349 0.01180309 71.60198945 0.0109237 C85.64106321 0.00960761 99.68013229 0.0129595 113.71920469 0.01894111 C127.6263641 0.02485137 141.53352155 0.02870569 155.4406822 0.02979392 C156.73612016 0.02989703 156.73612016 0.02989703 158.05772858 0.03000222 C162.4433676 0.03034054 166.82900662 0.03064193 171.21464564 0.0309291 C202.30515528 0.03303138 233.39566236 0.03977394 264.48617056 0.04923171 C294.69645688 0.05841113 324.9067425 0.0654972 355.11702993 0.06973952 C356.51302789 0.06993681 356.51302789 0.06993681 357.93722783 0.07013809 C367.28306636 0.07145657 376.62890489 0.07273239 385.97474343 0.07397695 C405.01451747 0.07651339 424.05429147 0.07933464 443.09406545 0.08232803 C443.96954776 0.08246532 444.84503007 0.08260261 445.74704215 0.08274406 C504.24350073 0.09194991 562.73995788 0.10781646 621.2364147 0.12467116 C620.9064147 3.75467116 620.5764147 7.38467116 620.2364147 11.12467116 C614.41552661 12.12889854 608.77742831 12.26494082 602.87806776 12.25051231 C601.32587001 12.25269247 601.32587001 12.25269247 599.74231472 12.25491667 C596.26428962 12.25857491 592.7863084 12.25509103 589.30828359 12.25165481 C586.79380202 12.25280669 584.27932061 12.25439467 581.76483956 12.25638205 C576.29243584 12.25969173 570.82004561 12.25988434 565.34764173 12.25733489 C557.21012053 12.25355413 549.07260765 12.25548525 540.9350865 12.2585432 C526.40247973 12.26381098 511.86987736 12.26335177 497.33727018 12.26046429 C484.6208878 12.25795003 471.90450703 12.25729143 459.18812444 12.25848693 C457.92350686 12.25860151 457.92350686 12.25860151 456.63334145 12.2587184 C453.21114595 12.25902973 449.78895045 12.25934813 446.36675495 12.25967816 C414.25764996 12.26273786 382.14854777 12.25996249 350.03944321 12.25458127 C321.50028116 12.24983472 292.96112358 12.25026093 264.42196157 12.25504226 C232.36905186 12.26039429 200.31614462 12.26252175 168.26323452 12.25942999 C164.84784749 12.25910927 161.43246045 12.25879643 158.01707342 12.25848693 C157.17609739 12.25840785 156.33512137 12.25832878 155.46866122 12.2582473 C142.75758186 12.25710884 130.04650428 12.25844193 117.33542516 12.26096648 C102.88692365 12.26382178 88.43842723 12.26311934 73.98992635 12.25768574 C65.89919723 12.25474363 57.80847913 12.25456617 49.71775029 12.25833191 C43.68639126 12.26083008 37.6550466 12.25813193 31.62368844 12.25335734 C29.17631498 12.25223517 26.72894005 12.25281994 24.28156753 12.25523313 C20.96871673 12.25825053 17.6559269 12.25517852 14.34307935 12.25051231 C12.9002138 12.25402405 12.9002138 12.25402405 11.42819944 12.25760675 C7.23721086 12.24571612 3.32052946 12.20046174 -0.7635853 11.12467116 C-1.12468072 9.4803441 -1.47728606 7.83415036 -1.8260853 6.18717116 C-2.02331187 5.27064773 -2.22053843 4.35412429 -2.42374155 3.40982741 C-2.53588999 2.65572585 -2.64803843 1.90162429 -2.7635853 1.12467116 C-1.7635853 0.12467116 -1.7635853 0.12467116 0 0 Z " fill="#000000" transform="translate(63.763585302978754,393.87532883509994)"/>
<path d="M0 0 C55.64852833 -0.01711048 111.29705692 -0.03303211 166.94558716 -0.04234314 C167.76859777 -0.0424812 168.59160838 -0.04261925 169.43955871 -0.04276149 C187.32381083 -0.04575408 205.20806299 -0.04852431 223.09231519 -0.05106533 C231.86216196 -0.05231272 240.63200871 -0.05360926 249.40185547 -0.05493164 C250.27458208 -0.0550624 251.1473087 -0.05519316 252.04648157 -0.05532788 C280.35755979 -0.05959274 308.66863602 -0.06710666 336.97971303 -0.07629722 C366.0618261 -0.08572098 395.14393807 -0.09188339 424.22605265 -0.09391499 C428.32935294 -0.09420316 432.43265323 -0.0945288 436.53595352 -0.09487724 C437.34357856 -0.09494467 438.15120359 -0.09501209 438.98330211 -0.09508156 C452.00801122 -0.09626539 465.03271693 -0.10090916 478.05742465 -0.10683203 C491.13700224 -0.11270656 504.21657645 -0.11497118 517.29615532 -0.11350138 C525.07643059 -0.11273814 532.85669352 -0.1147922 540.63696657 -0.12079754 C546.43218261 -0.12496692 552.22738999 -0.12397335 558.02260698 -0.12089889 C560.37794362 -0.12047328 562.73328127 -0.12176833 565.08861588 -0.12488318 C568.27021832 -0.12884882 571.45175859 -0.12676229 574.63335991 -0.12304783 C575.56504362 -0.12567484 576.49672733 -0.12830186 577.45664388 -0.13100848 C583.7717084 -0.1141458 583.7717084 -0.1141458 586 1 C585.46599103 4.91606575 584.80330533 7.39338934 583 11 C391.27 11 199.54 11 2 11 C-1 4 -1 4 -0.6875 1.5625 C-0.460625 1.046875 -0.23375 0.53125 0 0 Z " fill="#000000" transform="translate(81,460)"/>
<path d="M0 0 C180.84 0 361.68 0 548 0 C546.91237072 4.3505171 545.98170917 6.65493021 543 10 C540.04465445 10.89495025 537.17324065 10.80736626 534.10401249 10.75784016 C533.19086168 10.7668604 532.27771087 10.77588064 531.33688882 10.78517422 C528.2540434 10.80821077 525.17295164 10.78821056 522.09010315 10.76863098 C519.86693682 10.77625501 517.64377816 10.78649356 515.42063469 10.79913253 C509.2937002 10.82622513 503.16731208 10.81563381 497.04036129 10.79900706 C491.11700844 10.7887068 485.1937845 10.80646631 479.27045658 10.82335677 C466.40366031 10.85886381 453.5370338 10.85978717 440.67020618 10.84592484 C429.40981079 10.83383233 418.14948014 10.83244136 406.88908195 10.84183311 C406.14284162 10.84243655 405.39660129 10.84303999 404.62774762 10.84366171 C401.59868444 10.84611141 398.5696213 10.848593 395.5405582 10.851134 C367.11069514 10.87471341 338.68094348 10.86244281 310.25108958 10.83478849 C284.98168492 10.81044894 259.71250183 10.82007708 234.44311523 10.85766602 C206.06755221 10.89977916 177.69211792 10.91902848 149.31652397 10.90264148 C146.29259394 10.9009632 143.26866389 10.8993503 140.24473381 10.89777184 C139.50013882 10.89736479 138.75554383 10.89695775 137.98838535 10.89653838 C126.73454497 10.89081742 115.48081175 10.90280897 104.22699165 10.92350197 C91.4325429 10.94695795 78.63836705 10.94574257 65.84393663 10.91158883 C59.31166868 10.89480234 52.77980368 10.89007375 46.24754143 10.91518784 C40.27331449 10.93784794 34.30004636 10.92847606 28.32588958 10.89301594 C26.15904939 10.88586152 23.99213188 10.89064655 21.82535142 10.90825496 C18.88967339 10.93036955 15.9573456 10.90978787 13.02182865 10.87809467 C11.74613305 10.90310569 11.74613305 10.90310569 10.44466582 10.92862198 C7.0606857 10.85397432 4.88970705 10.79072892 2.29939049 8.48857989 C0.90760346 6.67683623 -0.19052133 5.13821504 -1 3 C-0.67 2.01 -0.34 1.02 0 0 Z " fill="#000000" transform="translate(100,500)"/>
<path d="M0 0 C160.05 0 320.1 0 485 0 C485 0.99 485 1.98 485 3 C484.34 3 483.68 3 483 3 C483 3.66 483 4.32 483 5 C482.34 5 481.68 5 481 5 C480.731875 5.61875 480.46375 6.2375 480.1875 6.875 C479 9 479 9 476 11 C473.41559999 11.19547761 470.9390586 11.27342849 468.35430431 11.26006222 C467.16910262 11.26577072 467.16910262 11.26577072 465.95995745 11.27159455 C463.2900682 11.2819698 460.62038923 11.2779933 457.95048523 11.27415466 C456.02588832 11.27860385 454.10129325 11.28391684 452.17670089 11.29002339 C446.87051364 11.3042521 441.56438482 11.30586576 436.25818121 11.30542648 C430.54230695 11.3070704 424.82645708 11.32012891 419.1105957 11.33161926 C406.60457133 11.3545011 394.09856389 11.36239323 381.59252143 11.36744571 C373.78834577 11.3706989 365.98417507 11.37721906 358.18000221 11.3844471 C336.58558969 11.40401684 314.99118355 11.42050025 293.39676189 11.42332363 C292.36034232 11.42346472 292.36034232 11.42346472 291.30298498 11.42360866 C288.50278688 11.42398715 285.70258879 11.42435115 282.90239069 11.42471164 C280.79470903 11.42498336 278.68702737 11.42526004 276.5793457 11.42553711 C275.88288738 11.42562513 275.18642905 11.42571315 274.46886593 11.42580384 C252.58312676 11.42870963 230.69747589 11.45080731 208.81176758 11.48706055 C184.23480514 11.52777056 159.65790881 11.55146248 135.08091003 11.55178314 C122.06361926 11.55236862 109.04644213 11.56091887 96.02918053 11.58978081 C84.94646727 11.61423988 73.86390909 11.62161463 62.78117617 11.60653328 C57.12372911 11.59934207 51.46658859 11.60031693 45.80917549 11.62294388 C40.63316493 11.64344763 35.45769827 11.64101423 30.28169415 11.62006903 C28.40618075 11.61655761 26.53062878 11.6215535 24.65516599 11.63577347 C22.11051862 11.65382842 19.56780645 11.64122236 17.02321911 11.62082577 C16.29060941 11.63338914 15.55799972 11.64595251 14.80318972 11.6588966 C9.12256163 11.56105291 6.8942924 9.81542292 3 6 C2.38125 5.46375 1.7625 4.9275 1.125 4.375 C0 3 0 3 0 0 Z " fill="#000000" transform="translate(131,546)"/>
<path d="M0 0 C124.74 0 249.48 0 378 0 C378 0.99 378 1.98 378 3 C377.113125 3.4125 376.22625 3.825 375.3125 4.25 C372.00613786 5.82646381 372.00613786 5.82646381 369.67653495 8.07756555 C366.45115018 10.3942141 364.79744198 10.50258963 360.86294079 10.50895119 C359.62131371 10.52061557 358.37968663 10.53227996 357.10043448 10.54429781 C355.72541685 10.53703165 354.35040119 10.52938291 352.97538757 10.52139282 C351.51246177 10.5274339 350.04954228 10.53521189 348.58663398 10.54457796 C344.56570819 10.56518173 340.54513818 10.56076349 336.52418292 10.55221677 C332.18797794 10.54729009 327.85185949 10.56530093 323.51568604 10.58029175 C315.01991957 10.60581273 306.52427944 10.60936973 298.02848109 10.60469122 C291.12314291 10.60112725 284.21784312 10.60461904 277.31250954 10.61314011 C275.83911053 10.61492567 275.83911053 10.61492567 274.33594588 10.61674731 C272.34054439 10.61917079 270.34514291 10.62159905 268.34974144 10.62403207 C249.62901942 10.64579396 230.90836942 10.64145319 212.18764333 10.62926237 C195.06021302 10.61892547 177.93301027 10.64142901 160.80562498 10.67945881 C143.22241354 10.7182016 125.63930978 10.73472994 108.05605537 10.72721231 C98.18314969 10.72338576 88.31043765 10.72838747 78.43756676 10.75664139 C70.03166471 10.78045344 61.62607544 10.78329688 53.22016915 10.75906105 C48.93145063 10.7472716 44.64330441 10.74511565 40.35462379 10.76906586 C36.42682346 10.79074569 32.50007451 10.78462551 28.57232378 10.75654249 C27.15309453 10.75123771 25.7337834 10.75601644 24.31463441 10.77201422 C16.77626628 10.85107993 11.32737758 10.78059644 5.63417941 5.48150003 C3.87429195 3.8860367 2.15626163 2.97250944 0 2 C0 1.34 0 0.68 0 0 Z " fill="#000000" transform="translate(184,597)"/>
<path d="M0 0 C46.2 0 92.4 0 140 0 C140 0.66 140 1.32 140 2 C132.81198306 3.7906544 125.61366342 5.3220267 118.3125 6.5625 C117.32854248 6.73422729 117.32854248 6.73422729 116.32470703 6.90942383 C101.04897134 9.43154682 85.9633279 10.375248 70.5 10.3125 C69.58546051 10.31100952 68.67092102 10.30951904 67.72866821 10.3079834 C16.31600503 10.15800252 16.31600503 10.15800252 0 2 C0 1.34 0 0.68 0 0 Z " fill="#000000" transform="translate(304,651)"/>
</svg>
